PathFileType	4	(x/y/z)	S05_PSF_T06
DataRate	CameraRate	NumFrames	NumMarkers	Units	OrigDataRate	OrigDataStartFrame	OrigNumFrames
240	240	4	50	mm	240	108	430
Frame#	Time	Sternum			R.Acromium			L.Acromium			Top.Head			R.ASIS			L.ASIS			R.PSIS			L.PSIS			R.Great.Tro			L.Great.Tro			R.Iliac.Crest			L.Iliac.Crest			V.Sacral			R.Thigh.Upper.Post			R.Thigh.Lower.Ant			R.Thigh.Lower.Post			R.Thigh.Upper.Ant			R.Knee.Lat			R.Knee.Med			R.Shank.Upper.Post			R.Shank.Lower.Ant			R.Shank.Lower.Post			R.Shank.Upper.Ant			R.Ankle.Lat			R.Ankle.Med			R.Heel.Upper			R.Heel.Med			R.Heel.Lat			R.Toe.Lat			R.Toe.Med			R.Toe.Tip			L.Thigh.Upper.Post			L.Thigh.Lower.Ant			L.Thigh.Lower.Post			L.Thigh.Upper.Ant			L.Knee.Lat			L.Shank.Upper.Post			L.Shank.Lower.Ant			L.Shank.Lower.Post			L.Shank.Upper.Ant			L.Ankle.Lat			L.Ankle.Med			L.Heel.Upper			L.Heel.Med			L.Heel.Lat			L.Toe.Lat			L.Toe.Med			L.Toe.Tip			Cervical.Spine			Back			
		X1	Y1	Z1	X2	Y2	Z2	X3	Y3	Z3	X4	Y4	Z4	X5	Y5	Z5	X6	Y6	Z6	X7	Y7	Z7	X8	Y8	Z8	X9	Y9	Z9	X10	Y10	Z10	X11	Y11	Z11	X12	Y12	Z12	X13	Y13	Z13	X14	Y14	Z14	X15	Y15	Z15	X16	Y16	Z16	X17	Y17	Z17	X18	Y18	Z18	X19	Y19	Z19	X20	Y20	Z20	X21	Y21	Z21	X22	Y22	Z22	X23	Y23	Z23	X24	Y24	Z24	X25	Y25	Z25	X26	Y26	Z26	X27	Y27	Z27	X28	Y28	Z28	X29	Y29	Z29	X30	Y30	Z30	X31	Y31	Z31	X32	Y32	Z32	X33	Y33	Z33	X34	Y34	Z34	X35	Y35	Z35	X36	Y36	Z36	X37	Y37	Z37	X38	Y38	Z38	X39	Y39	Z39	X40	Y40	Z40	X41	Y41	Z41	X42	Y42	Z42	X43	Y43	Z43	X44	Y44	Z44	X45	Y45	Z45	X46	Y46	Z46	X47	Y47	Z47	X48	Y48	Z48	X49	Y49	Z49	X50	Y50	Z50	

108	0.44583	-864.29	1269.4	280.07	-958.69	1535.5	422.72	-963.27	1544.7	100.74	-946.52	1839.4	245.23	-939.01	1020.4	409.5	-931.45	1024.7	159.41	-1140.5	1036.7	321.81	-1137.1	1043.1	230.47	-1013	937.37	475.22	-1028.3	946.71	89.339	-1031.4	1107.1	447.94	-1020.1	1100.8	112.27	-1151	1005.2	288.63	-884.57	744.49	476.5	-810.65	696.27	424.64	-863.67	658.1	457.28	-836.18	780.69	442.77	-846.57	560.08	436.01	-829.4	550.26	306.08	-933.05	325.53	411.7	-875.27	257.68	418.8	-934.41	250.64	395.2	-872.81	333.93	433.91	-892.49	152.6	400.34	-868.23	181.11	315.69	-951.34	101.17	327.62	-934.28	72.487	300.25	-947.35	70.959	363.6	-795.14	62.393	440.76	-741.43	79.49	332.09	-692.37	99.709	387.39	-1048.2	710.35	102.16	-973.95	630.52	123.85	-1045.5	616.39	120.92	-969.08	719.39	102.82	-1045.7	522.46	131.73	-1134.6	330.37	142.18	-1073.1	265.19	144.9	-1144	260.44	162.67	-1068	334.09	129.53	-1129.3	117.38	177.28	-1092.3	134.03	261.39	-1189.9	73.037	234.33	-1177.7	47.711	265.47	-1190.9	46.836	205.03	-1011.6	37.865	140.4	-981.99	49.244	258.73	-920.22	55.088	200.3	-1004.2	1577.9	264.38	-1129.7	1306.7	269.71
109	0.45	-859.1	1268.9	280.02	-953.5	1534.8	422.85	-957.96	1544.3	100.92	-941.3	1838.8	245.76	-933.72	1019.8	409.34	-926.51	1024.3	159.25	-1135.4	1036.5	321.92	-1132.2	1043	230.6	-1007.8	936.76	475.1	-1023.7	946.56	89.305	-1026	1106.6	447.93	-1015.1	1100.4	112.25	-1145.9	1005	288.72	-880.15	743.36	476.08	-806.46	694.97	424.07	-859.53	656.93	456.76	-831.72	779.45	442.29	-842.13	559.07	435.25	-825.09	549.28	305.2	-922.26	322.32	411.58	-862.57	256.31	419.06	-921.36	247.41	395.29	-862.38	332.59	433.9	-876.25	150.45	400.94	-852.81	179.41	316.26	-933.4	96.986	328.3	-915.31	68.775	301.05	-928.52	67.045	364.36	-776.14	63.309	441.65	-723.08	81.691	333.26	-673.99	103.76	388.42	-1045.1	710.41	102.04	-971.35	630.17	123.83	-1043	616.44	120.85	-965.98	718.99	102.75	-1043.9	522.42	131.74	-1133.7	330.68	142.33	-1072.4	265.26	144.95	-1143.4	260.79	162.85	-1067.1	334.12	129.57	-1129.1	117.57	177.46	-1091.9	134.12	261.57	-1189.7	73.187	234.57	-1177.6	47.818	265.72	-1190.8	47.006	205.27	-1011.6	37.88	140.43	-981.85	49.143	258.75	-920.13	54.89	200.31	-998.89	1577.4	264.52	-1124.3	1306.2	269.66
110	0.45417	-853.91	1268.2	279.97	-948.3	1534.1	422.99	-952.65	1543.9	101.11	-936.09	1838.3	246.31	-928.41	1019.1	409.19	-921.55	1023.8	159.1	-1130.2	1036.2	322.04	-1127.2	1042.8	230.74	-1002.6	936.07	474.98	-1019.1	946.39	89.271	-1020.7	1105.9	447.93	-1010.2	1100.1	112.25	-1140.7	1004.8	288.82	-875.81	742.1	475.67	-802.36	693.52	423.5	-855.5	655.63	456.26	-827.32	778.06	441.82	-837.77	557.97	434.48	-820.9	548.18	304.29	-911.5	319.23	411.48	-849.94	255.1	419.36	-908.33	244.35	395.42	-852.01	331.35	433.91	-860.05	148.56	401.59	-837.46	177.94	316.88	-915.45	93.121	329.05	-896.38	65.393	301.91	-909.69	63.471	365.19	-757.26	64.562	442.57	-704.94	84.185	334.44	-655.86	108.09	389.43	-1042	710.45	101.93	-968.73	629.81	123.82	-1040.4	616.47	120.78	-962.86	718.58	102.67	-1042.1	522.36	131.75	-1132.7	330.98	142.49	-1071.7	265.33	145.01	-1142.7	261.14	163.04	-1066.2	334.15	129.61	-1128.9	117.76	177.65	-1091.5	134.2	261.74	-1189.6	73.344	234.83	-1177.4	47.936	265.97	-1190.7	47.183	205.52	-1011.6	37.894	140.46	-981.71	49.043	258.76	-920.05	54.688	200.31	-993.58	1576.8	264.68	-1118.8	1305.7	269.63
111	0.45833	-848.7	1267.6	279.94	-943.1	1533.3	423.15	-947.33	1543.4	101.33	-930.87	1837.6	246.88	-923.09	1018.4	409.05	-916.59	1023.2	158.96	-1124.9	1035.9	322.17	-1122.1	1042.6	230.89	-997.42	935.31	474.85	-1014.5	946.19	89.238	-1015.3	1105.2	447.93	-1005.2	1099.6	112.26	-1135.6	1004.5	288.93	-871.54	740.73	475.25	-798.36	691.92	422.93	-851.57	654.2	455.76	-822.98	776.53	441.34	-833.5	556.77	433.7	-816.81	546.97	303.35	-900.75	316.25	411.41	-837.38	254.05	419.69	-895.34	241.45	395.58	-841.73	330.22	433.94	-843.92	146.94	402.28	-822.2	176.7	317.52	-897.53	89.579	329.86	-877.5	62.35	302.82	-890.89	60.245	366.09	-738.54	66.15	443.51	-687.03	86.967	335.63	-638.03	112.69	390.41	-1038.8	710.46	101.82	-966.08	629.43	123.81	-1037.8	616.49	120.72	-959.72	718.14	102.6	-1040.3	522.3	131.76	-1131.8	331.28	142.66	-1071	265.39	145.06	-1142.1	261.49	163.23	-1065.2	334.18	129.65	-1128.7	117.95	177.84	-1091.2	134.29	261.92	-1189.4	73.511	235.08	-1177.3	48.064	266.22	-1190.6	47.367	205.77	-1011.6	37.907	140.49	-981.58	48.943	258.78	-919.96	54.483	200.31	-988.28	1576.2	264.85	-1113.4	1305.1	269.61
